<svg width="18" height="24" viewBox="0 0 18 24" fill="none" xmlns="http://www.w3.org/2000/svg">
<path d="M14.7426 6.90243V0.571289L9.46646 5.71654L4.17122 0.571289V6.90243L0.856934 3.9377V20.0429L4.15217 17.0973V23.4284L9.42836 18.2832L14.7046 23.4284V17.0973L17.9998 20.0429V3.9377L14.7426 6.90243ZM9.44741 15.2037L6.24741 11.9903L9.44741 8.77691L12.6474 11.9903L9.44741 15.2037Z" fill="#FF4748"/>
<path d="M14.7426 6.90243V0.571289L9.46646 5.71654L4.17122 0.571289V6.90243L0.856934 3.9377V20.0429L4.15217 17.0973V23.4284L9.42836 18.2832L14.7046 23.4284V17.0973L17.9998 20.0429V3.9377L14.7426 6.90243ZM9.44741 15.2037L6.24741 11.9903L9.44741 8.77691L12.6474 11.9903L9.44741 15.2037Z" fill="black" fill-opacity="0.2"/>
</svg>
