<svg width="32" height="32" viewBox="0 0 32 32" fill="none" xmlns="http://www.w3.org/2000/svg">
<circle cx="16" cy="16" r="15.5" fill="#F5F5F5" stroke="#F5F5F5"/>
<path fill-rule="evenodd" clip-rule="evenodd" d="M13.524 21.7137H18.4763C20.4136 21.7137 21.7147 20.3548 21.7147 18.3327V13.6661C21.7147 11.6441 20.4136 10.2852 18.4769 10.2852H13.524C11.5872 10.2852 10.2861 11.6441 10.2861 13.6661V18.3327C10.2861 20.3548 11.5872 21.7137 13.524 21.7137ZM13.9998 15.428C13.212 15.428 12.5718 14.787 12.5718 13.9994C12.5718 13.2119 13.212 12.5709 13.9998 12.5709C14.787 12.5709 15.4277 13.2119 15.4277 13.9994C15.4277 14.787 14.787 15.428 13.9998 15.428ZM20.4695 17.676C20.6608 18.1666 20.5614 18.7563 20.3568 19.2423C20.1143 19.8202 19.6501 20.2577 19.0651 20.4488C18.8054 20.5337 18.533 20.5709 18.2612 20.5709H13.4454C12.9661 20.5709 12.5421 20.4559 12.1944 20.2418C11.9766 20.1074 11.9381 19.7972 12.0996 19.5961C12.3697 19.2599 12.6363 18.9226 12.9052 18.5824C13.4178 17.9313 13.7631 17.7426 14.147 17.9083C14.3027 17.9767 14.459 18.0793 14.6199 18.1879C15.0485 18.4792 15.6444 18.8796 16.4293 18.445C16.9665 18.1441 17.278 17.6281 17.5493 17.1787L17.5539 17.1712L17.6111 17.0767C17.7023 16.9258 17.7923 16.777 17.894 16.6399C18.0216 16.4683 18.4945 15.9316 19.107 16.3138C19.4972 16.5544 19.8253 16.8799 20.1764 17.2284C20.3103 17.3617 20.4057 17.5132 20.4695 17.676Z" fill="#E0E0E0"/>
</svg>
