<svg width="20" height="20" viewBox="0 0 20 20" fill="none" xmlns="http://www.w3.org/2000/svg">
<path d="M10 13C11.6569 13 13 11.6569 13 10C13 8.34315 11.6569 7 10 7C8.34315 7 7 8.34315 7 10C7 11.6569 8.34315 13 10 13Z" stroke="#023AFF" stroke-width="1.5" stroke-linecap="round" stroke-linejoin="round"/>
<path d="M13 6.9999V10.7499C13 11.3466 13.2371 11.9189 13.659 12.3409C14.081 12.7628 14.6533 12.9999 15.25 12.9999C15.8467 12.9999 16.419 12.7628 16.841 12.3409C17.263 11.9189 17.5 11.3466 17.5 10.7499V9.9999C17.4999 8.30717 16.9272 6.66426 15.875 5.3383C14.8227 4.01234 13.3529 3.08132 11.7045 2.69662C10.0561 2.31193 8.32596 2.49618 6.79552 3.21943C5.26508 3.94267 4.0243 5.16237 3.27495 6.68019C2.5256 8.19802 2.31173 9.9247 2.66813 11.5795C3.02453 13.2343 3.93024 14.7198 5.23798 15.7946C6.54572 16.8694 8.17858 17.4702 9.87106 17.4993C11.5635 17.5284 13.2161 16.9841 14.56 15.9549" stroke="#023AFF" stroke-width="1.5" stroke-linecap="round" stroke-linejoin="round"/>
</svg>
