<svg width="20" height="20" viewBox="0 0 20 20" fill="none" xmlns="http://www.w3.org/2000/svg">
<path d="M9.79004 12.7896C11.4469 12.7896 12.79 11.4464 12.79 9.78955C12.79 8.1327 11.4469 6.78955 9.79004 6.78955C8.13318 6.78955 6.79004 8.1327 6.79004 9.78955C6.79004 11.4464 8.13318 12.7896 9.79004 12.7896Z" stroke="#757575" stroke-width="1.5" stroke-linecap="round" stroke-linejoin="round"/>
<path d="M13.084 6.91556V10.7706C13.084 11.384 13.3277 11.9723 13.7615 12.4061C14.1953 12.8399 14.7836 13.0836 15.397 13.0836C16.0105 13.0836 16.5988 12.8399 17.0326 12.4061C17.4664 11.9723 17.71 11.384 17.71 10.7706V9.99956C17.7099 8.25943 17.1212 6.57052 16.0395 5.20743C14.9578 3.84435 13.4468 2.88726 11.7522 2.49179C10.0577 2.09632 8.27912 2.28574 6.70583 3.02923C5.13254 3.77273 3.85702 5.02657 3.08669 6.5869C2.31635 8.14722 2.0965 9.92225 2.46288 11.6234C2.82926 13.3245 3.76032 14.8516 5.10468 15.9565C6.44904 17.0614 8.12762 17.679 9.86748 17.7089C11.6074 17.7388 13.3062 17.1793 14.6877 16.1213" stroke="#757575" stroke-width="1.5" stroke-linecap="round" stroke-linejoin="round"/>
</svg>
