<svg width="20" height="20" viewBox="0 0 20 20" fill="none" xmlns="http://www.w3.org/2000/svg">
<path d="M9.96842 10.9903H6.0523L6.03136 8.69824H9.31922C9.89862 8.69824 10.3733 8.62035 10.7433 8.46458C11.1132 8.3014 11.389 8.06774 11.5705 7.76362C11.7589 7.45209 11.8532 7.07379 11.8532 6.62873C11.8532 6.12434 11.7624 5.71637 11.5809 5.40483C11.4064 5.09329 11.1307 4.86706 10.7537 4.72612C10.3838 4.58519 9.9056 4.51472 9.31922 4.51472H7.14127V18.1H4V1.90002H9.31922C10.2058 1.90002 10.9981 1.98904 11.6961 2.16706C12.4012 2.34508 12.998 2.61582 13.4866 2.97928C13.9753 3.34274 14.3488 3.80263 14.607 4.35895C14.8653 4.90785 14.9945 5.5606 14.9945 6.31719C14.9945 6.98478 14.8514 7.60044 14.5652 8.16417C14.2859 8.72791 13.8427 9.1878 13.2353 9.54384C12.635 9.89989 11.8497 10.0965 10.8794 10.1335L9.96842 10.9903ZM9.8323 18.1H5.19368L6.41878 15.4965H9.8323C10.3838 15.4965 10.834 15.4037 11.183 15.2183C11.5321 15.0254 11.7904 14.7658 11.9579 14.4394C12.1254 14.1131 12.2092 13.7385 12.2092 13.3157C12.2092 12.841 12.1324 12.4293 11.9788 12.0807C11.8322 11.732 11.5949 11.465 11.2668 11.2796C10.9387 11.0867 10.5059 10.9903 9.96842 10.9903H6.94233L6.96327 8.69824H10.7328L11.4553 9.59948C12.3837 9.58464 13.1306 9.75895 13.6961 10.1224C14.2685 10.4785 14.6838 10.9421 14.9421 11.5132C15.2074 12.0844 15.34 12.6963 15.34 13.3491C15.34 14.3875 15.1271 15.2628 14.7013 15.9749C14.2755 16.6796 13.6507 17.2099 12.827 17.566C12.0103 17.922 11.012 18.1 9.8323 18.1Z" fill="#757575"/>
</svg>
