<svg width="20" height="20" viewBox="0 0 20 20" fill="none" xmlns="http://www.w3.org/2000/svg">
<path fill-rule="evenodd" clip-rule="evenodd" d="M12.8286 10.7881C12.8286 9.22717 11.5628 7.96143 10.0019 7.96143C8.44103 7.96143 7.17529 9.22717 7.17529 10.7881C7.17529 12.349 8.44103 13.6147 10.0019 13.6147C11.5628 13.6147 12.8286 12.349 12.8286 10.7881Z" stroke="#757575" stroke-width="1.5" stroke-linecap="round" stroke-linejoin="round"/>
<path fill-rule="evenodd" clip-rule="evenodd" d="M10.0013 17.71C17.2315 17.71 18.0924 15.5437 18.0924 10.8497C18.0924 7.55951 17.6572 5.79901 14.9166 5.04221C14.665 4.96275 14.3859 4.81139 14.1599 4.56259C13.7947 4.16244 13.5279 2.93359 12.6463 2.56181C11.7646 2.19098 8.22373 2.20801 7.35625 2.56181C6.48972 2.91656 6.20781 4.16244 5.84266 4.56259C5.61657 4.81139 5.33844 4.96275 5.08586 5.04221C2.34531 5.79901 1.91016 7.55951 1.91016 10.8497C1.91016 15.5437 2.77101 17.71 10.0013 17.71Z" stroke="#757575" stroke-width="1.5" stroke-linecap="round" stroke-linejoin="round"/>
<path d="M14.4155 7.64149H14.4236" stroke="#757575" stroke-width="1.5" stroke-linecap="round" stroke-linejoin="round"/>
</svg>
