<svg width="20" height="20" viewBox="0 0 20 20" fill="none" xmlns="http://www.w3.org/2000/svg">
<path d="M17.1323 8.44078C17.0135 8.32014 16.8525 8.25237 16.6846 8.25237C16.5168 8.25237 16.3558 8.32014 16.237 8.44078L9.34089 15.4801C9.04693 15.7789 8.69794 16.0159 8.31385 16.1777C7.92976 16.3394 7.51808 16.4226 7.10233 16.4227C6.26269 16.4227 5.45741 16.0838 4.86365 15.4804C4.26989 14.877 3.93629 14.0586 3.93623 13.2052C3.93617 12.3518 4.26966 11.5333 4.86334 10.9298L11.5423 4.11385C11.8995 3.75664 12.381 3.55733 12.8821 3.55935C13.3832 3.56136 13.8631 3.76453 14.2175 4.1246C14.5719 4.48468 14.7719 4.97248 14.774 5.48176C14.7761 5.99103 14.5801 6.48052 14.2287 6.8436L7.54974 13.6596C7.42929 13.7769 7.26892 13.8424 7.10211 13.8424C6.9353 13.8424 6.77494 13.7769 6.65448 13.6596C6.53579 13.5389 6.46911 13.3753 6.46911 13.2046C6.46911 13.034 6.53579 12.8704 6.65448 12.7497L12.6009 6.67822C12.7162 6.55685 12.7801 6.3943 12.7786 6.22558C12.7772 6.05685 12.7106 5.89545 12.5932 5.77614C12.4758 5.65683 12.317 5.58915 12.151 5.58769C11.985 5.58622 11.8251 5.65108 11.7057 5.7683L5.75923 11.8398C5.58282 12.019 5.44288 12.2319 5.3474 12.4661C5.25193 12.7003 5.20279 12.9514 5.20279 13.205C5.20279 13.4585 5.25193 13.7096 5.3474 13.9438C5.44288 14.1781 5.58282 14.3909 5.75923 14.5702C6.12114 14.9212 6.60217 15.117 7.10243 15.117C7.60268 15.117 8.08371 14.9212 8.44563 14.5702L15.124 7.75351C15.7052 7.14753 16.0281 6.3332 16.0228 5.48695C16.0174 4.64069 15.6843 3.83063 15.0955 3.23227C14.5067 2.6339 13.7096 2.2954 12.877 2.2901C12.0443 2.2848 11.2432 2.61312 10.647 3.20394L3.96808 10.0199C3.13688 10.8647 2.66992 12.0105 2.66992 13.2053C2.66992 14.4 3.13688 15.5458 3.96808 16.3906C4.79928 17.2354 5.92662 17.71 7.10211 17.71C8.2776 17.71 9.40494 17.2354 10.2361 16.3906L17.1323 9.35326C17.1914 9.29347 17.2384 9.22237 17.2704 9.14408C17.3024 9.06578 17.3189 8.98182 17.3189 8.89702C17.3189 8.81222 17.3024 8.72826 17.2704 8.64996C17.2384 8.57167 17.1914 8.50058 17.1323 8.44078Z" fill="#757575"/>
</svg>
