<svg width="20" height="20" viewBox="0 0 20 20" fill="none" xmlns="http://www.w3.org/2000/svg">
<g clip-path="url(#clip0_6095_51009)">
<path d="M11.3489 3.70268C10.8955 3.70268 10.465 3.70878 10.0349 3.70127C9.4166 3.69093 9.00263 3.08693 9.21185 2.49796C9.33819 2.14195 9.58998 1.93388 9.95512 1.90993C10.2172 1.89302 10.4811 1.90288 10.7445 1.90288C12.2006 1.90288 13.6567 1.90194 15.1127 1.90288C15.55 1.90288 15.8632 2.1194 15.9904 2.50031C16.1889 3.09398 15.7785 3.69328 15.1589 3.7008C14.554 3.70831 13.9492 3.70549 13.3444 3.69986C13.2324 3.69892 13.1804 3.73133 13.1396 3.84593C11.6769 7.9382 10.2096 12.0291 8.74367 16.1204C8.7262 16.1688 8.71276 16.219 8.68767 16.2979C8.80505 16.2979 8.90809 16.2979 9.01069 16.2979C9.3355 16.2979 9.66032 16.2951 9.98513 16.2989C10.4932 16.3045 10.8736 16.6873 10.8789 17.1936C10.8843 17.6971 10.5062 18.0949 9.99768 18.0963C8.28982 18.101 6.58152 18.1015 4.87367 18.0963C4.36114 18.0944 3.996 17.7027 4.00003 17.1889C4.00407 16.6896 4.37906 16.304 4.8777 16.2993C5.48253 16.2937 6.08736 16.2946 6.69219 16.3007C6.80419 16.3017 6.85616 16.2693 6.89693 16.1547C8.35972 12.0624 9.82698 7.97154 11.2929 3.88068C11.3104 3.83231 11.3238 3.78205 11.3489 3.70268Z" fill="#757575"/>
</g>
<defs>
<clipPath id="clip0_6095_51009">
<rect width="12.0405" height="16.2" fill="white" transform="translate(4 1.90002)"/>
</clipPath>
</defs>
</svg>
