<svg width="20" height="20" viewBox="0 0 20 20" fill="none" xmlns="http://www.w3.org/2000/svg">
<path d="M6.34052 3.93949H17.5467C17.7325 3.93949 17.9106 3.83652 18.042 3.65324C18.1733 3.46996 18.2471 3.22138 18.2471 2.96218C18.2471 2.70298 18.1733 2.45439 18.042 2.27111C17.9106 2.08783 17.7325 1.98486 17.5467 1.98486H6.34052C6.15477 1.98486 5.97662 2.08783 5.84528 2.27111C5.71393 2.45439 5.64014 2.70298 5.64014 2.96218C5.64014 3.22138 5.71393 3.46996 5.84528 3.65324C5.97662 3.83652 6.15477 3.93949 6.34052 3.93949Z" fill="#757575"/>
<path d="M2.8426 4.08921C3.44603 4.08921 3.93521 3.59914 3.93521 2.99462C3.93521 2.39009 3.44603 1.90002 2.8426 1.90002C2.23918 1.90002 1.75 2.39009 1.75 2.99462C1.75 3.59914 2.23918 4.08921 2.8426 4.08921Z" fill="#757575"/>
<path d="M17.5467 9.02332H6.34052C6.15477 9.02332 5.97662 9.12628 5.84528 9.30956C5.71393 9.49285 5.64014 9.74143 5.64014 10.0006C5.64014 10.2598 5.71393 10.5084 5.84528 10.6917C5.97662 10.875 6.15477 10.9779 6.34052 10.9779H17.5467C17.7325 10.9779 17.9106 10.875 18.042 10.6917C18.1733 10.5084 18.2471 10.2598 18.2471 10.0006C18.2471 9.74143 18.1733 9.49285 18.042 9.30956C17.9106 9.12628 17.7325 9.02332 17.5467 9.02332Z" fill="#757575"/>
<path d="M2.8426 11.0945C3.44603 11.0945 3.93521 10.6044 3.93521 9.99986C3.93521 9.39534 3.44603 8.90527 2.8426 8.90527C2.23918 8.90527 1.75 9.39534 1.75 9.99986C1.75 10.6044 2.23918 11.0945 2.8426 11.0945Z" fill="#757575"/>
<path d="M17.5467 16.059H6.34052C6.15477 16.059 5.97662 16.1619 5.84528 16.3452C5.71393 16.5285 5.64014 16.7771 5.64014 17.0363C5.64014 17.2955 5.71393 17.5441 5.84528 17.7273C5.97662 17.9106 6.15477 18.0136 6.34052 18.0136H17.5467C17.7325 18.0136 17.9106 17.9106 18.042 17.7273C18.1733 17.5441 18.2471 17.2955 18.2471 17.0363C18.2471 16.7771 18.1733 16.5285 18.042 16.3452C17.9106 16.1619 17.7325 16.059 17.5467 16.059Z" fill="#757575"/>
<path d="M2.8426 18.0999C3.44603 18.0999 3.93521 17.6099 3.93521 17.0054C3.93521 16.4008 3.44603 15.9108 2.8426 15.9108C2.23918 15.9108 1.75 16.4008 1.75 17.0054C1.75 17.6099 2.23918 18.0999 2.8426 18.0999Z" fill="#757575"/>
</svg>
