<svg width="20" height="20" viewBox="0 0 20 20" fill="none" xmlns="http://www.w3.org/2000/svg">
<path d="M5.05908 13.7158C5.05908 13.7158 5.73575 12.3516 6.72075 12.3516C7.70575 12.3516 8.20908 13.4975 9.30075 13.4975C10.3916 13.4975 11.6157 10.6241 12.8524 10.6241C14.0874 10.6241 14.9757 12.6166 14.9757 12.6166" stroke="#757575" stroke-width="1.2" stroke-linecap="round" stroke-linejoin="round"/>
<path fill-rule="evenodd" clip-rule="evenodd" d="M8.44935 7.5874C8.44935 8.30406 7.86852 8.88573 7.15102 8.88573C6.43435 8.88573 5.85352 8.30406 5.85352 7.5874C5.85352 6.87073 6.43435 6.28906 7.15102 6.28906C7.86852 6.2899 8.44935 6.87073 8.44935 7.5874Z" stroke="#757575" stroke-width="1.2" stroke-linecap="round" stroke-linejoin="round"/>
<path fill-rule="evenodd" clip-rule="evenodd" d="M2.29199 10.0001C2.29199 15.7809 4.21949 17.7084 10.0003 17.7084C15.7812 17.7084 17.7087 15.7809 17.7087 10.0001C17.7087 4.21925 15.7812 2.29175 10.0003 2.29175C4.21949 2.29175 2.29199 4.21925 2.29199 10.0001Z" stroke="#757575" stroke-width="1.5" stroke-linecap="round" stroke-linejoin="round"/>
</svg>
