<svg width="32" height="32" viewBox="0 0 32 32" fill="none" xmlns="http://www.w3.org/2000/svg">
<rect width="32" height="32" rx="4" fill="#2196F3"/>
<rect width="32" height="32" rx="4" fill="black" fill-opacity="0.6"/>
<path d="M12.3405 9.93949H23.5467C23.7325 9.93949 23.9106 9.83652 24.042 9.65324C24.1733 9.46996 24.2471 9.22138 24.2471 8.96218C24.2471 8.70298 24.1733 8.45439 24.042 8.27111C23.9106 8.08783 23.7325 7.98486 23.5467 7.98486H12.3405C12.1548 7.98486 11.9766 8.08783 11.8453 8.27111C11.7139 8.45439 11.6401 8.70298 11.6401 8.96218C11.6401 9.22138 11.7139 9.46996 11.8453 9.65324C11.9766 9.83652 12.1548 9.93949 12.3405 9.93949Z" fill="white"/>
<path d="M8.8426 10.0892C9.44603 10.0892 9.93521 9.59914 9.93521 8.99462C9.93521 8.39009 9.44603 7.90002 8.8426 7.90002C8.23918 7.90002 7.75 8.39009 7.75 8.99462C7.75 9.59914 8.23918 10.0892 8.8426 10.0892Z" fill="white"/>
<path d="M23.5467 15.0233H12.3405C12.1548 15.0233 11.9766 15.1263 11.8453 15.3096C11.7139 15.4928 11.6401 15.7414 11.6401 16.0006C11.6401 16.2598 11.7139 16.5084 11.8453 16.6917C11.9766 16.875 12.1548 16.9779 12.3405 16.9779H23.5467C23.7325 16.9779 23.9106 16.875 24.042 16.6917C24.1733 16.5084 24.2471 16.2598 24.2471 16.0006C24.2471 15.7414 24.1733 15.4928 24.042 15.3096C23.9106 15.1263 23.7325 15.0233 23.5467 15.0233Z" fill="white"/>
<path d="M8.8426 17.0945C9.44603 17.0945 9.93521 16.6044 9.93521 15.9999C9.93521 15.3953 9.44603 14.9053 8.8426 14.9053C8.23918 14.9053 7.75 15.3953 7.75 15.9999C7.75 16.6044 8.23918 17.0945 8.8426 17.0945Z" fill="white"/>
<path d="M23.5467 22.059H12.3405C12.1548 22.059 11.9766 22.1619 11.8453 22.3452C11.7139 22.5285 11.6401 22.7771 11.6401 23.0363C11.6401 23.2955 11.7139 23.5441 11.8453 23.7273C11.9766 23.9106 12.1548 24.0136 12.3405 24.0136H23.5467C23.7325 24.0136 23.9106 23.9106 24.042 23.7273C24.1733 23.5441 24.2471 23.2955 24.2471 23.0363C24.2471 22.7771 24.1733 22.5285 24.042 22.3452C23.9106 22.1619 23.7325 22.059 23.5467 22.059Z" fill="white"/>
<path d="M8.8426 24.0999C9.44603 24.0999 9.93521 23.6099 9.93521 23.0054C9.93521 22.4008 9.44603 21.9108 8.8426 21.9108C8.23918 21.9108 7.75 22.4008 7.75 23.0054C7.75 23.6099 8.23918 24.0999 8.8426 24.0999Z" fill="white"/>
</svg>
