<svg width="18" height="18" viewBox="0 0 18 18" fill="none" xmlns="http://www.w3.org/2000/svg">
<path fill-rule="evenodd" clip-rule="evenodd" d="M7.23067 11.6719C4.02734 11.6719 1.2915 12.156 1.2915 14.096C1.2915 16.036 4.01067 16.5377 7.23067 16.5377C10.4348 16.5377 13.1698 16.0527 13.1698 14.1135C13.1698 12.1744 10.4515 11.6719 7.23067 11.6719Z" stroke="#130F26" stroke-width="1.2" stroke-linecap="round" stroke-linejoin="round"/>
<path fill-rule="evenodd" clip-rule="evenodd" d="M7.23066 8.90533C9.33316 8.90533 11.0373 7.20116 11.0373 5.09866C11.0373 2.99616 9.33316 1.29199 7.23066 1.29199C5.129 1.29199 3.42483 2.99616 3.42483 5.09866C3.41733 7.19366 5.109 8.89783 7.20483 8.90533H7.23066Z" stroke="#130F26" stroke-width="1.2" stroke-linecap="round" stroke-linejoin="round"/>
<path d="M15.0031 6.22461V9.56628" stroke="#130F26" stroke-width="1.2" stroke-linecap="round" stroke-linejoin="round"/>
<path d="M16.7081 7.89518H13.2998" stroke="#130F26" stroke-width="1.2" stroke-linecap="round" stroke-linejoin="round"/>
</svg>
