<svg width="48" height="48" viewBox="0 0 48 48" fill="none" xmlns="http://www.w3.org/2000/svg">
<rect width="18" height="18" transform="translate(15 15)" fill="#01F1E3"/>
<circle cx="24" cy="24" r="24" fill="#023AFF"/>
<path fill-rule="evenodd" clip-rule="evenodd" d="M25 17.75C25 17.3358 24.6642 17 24.25 17C23.8358 17 23.5 17.3358 23.5 17.75V23.5H17.75C17.3358 23.5 17 23.8358 17 24.25C17 24.6642 17.3358 25 17.75 25H23.5V30.75C23.5 31.1642 23.8358 31.5 24.25 31.5C24.6642 31.5 25 31.1642 25 30.75V25H30.75C31.1642 25 31.5 24.6642 31.5 24.25C31.5 23.8358 31.1642 23.5 30.75 23.5H25V17.75Z" fill="white"/>
</svg>
